<svg width="244" height="65" viewBox="0 0 244 65" fill="none" xmlns="http://www.w3.org/2000/svg">
<path d="M32.4006 30.9276L28.3818 39.6641H50.5726C52.2034 39.6641 55.465 40.5028 55.465 43.8577C55.465 47.2125 52.2034 47.9347 50.5726 47.8764H24.5377L16.8496 65L23.3146 56.7877H51.4462L55.465 56.2635C64.1316 54.027 65.9488 46.8281 65.7741 43.5082C64.516 33.7233 56.6299 31.0441 52.8441 30.9276H32.4006Z" fill="#11828D"/>
<path d="M25.0616 21.8418H33.4487L29.4299 30.9278H24.7122C21.7767 30.3686 20.9263 28.2486 20.8681 27.2584C20.5885 23.4843 23.5473 22.0748 25.0616 21.8418Z" fill="#11828D"/>
<path d="M33.971 17.1236L40.7855 0L35.3688 7.16394L19.1189 8.03759L17.0222 8.38705C10.9066 10.3091 -1.04496 17.7875 0.0733145 32.3251C1.19159 46.8627 13.1198 52.8268 18.9442 53.9917L22.6135 44.7309C18.3035 44.4397 9.64854 41.3761 9.50875 31.4514C9.36897 21.5268 17.4881 17.7642 21.5651 17.1236H33.971Z" fill="#11828D"/>
<path d="M33.7969 20.7942L38.1651 10.3104H60.8801L56.6865 20.7942H33.7969Z" fill="#11828D"/>
<path d="M95.7591 49.3215C94.0311 49.3215 92.4205 49.0442 90.9271 48.4895C89.4551 47.9135 88.1751 47.1028 87.0871 46.0575C85.9991 45.0122 85.1458 43.7855 84.5271 42.3775C83.9298 40.9695 83.6311 39.4228 83.6311 37.7375C83.6311 36.0522 83.9298 34.5055 84.5271 33.0975C85.1458 31.6895 85.9991 30.4628 87.0871 29.4175C88.1965 28.3722 89.4871 27.5722 90.9591 27.0175C92.4311 26.4415 94.0418 26.1535 95.7911 26.1535C97.7325 26.1535 99.4818 26.4948 101.039 27.1775C102.618 27.8388 103.94 28.8202 105.007 30.1215L101.679 33.1935C100.911 32.3188 100.058 31.6682 99.1191 31.2415C98.1805 30.7935 97.1565 30.5695 96.0471 30.5695C95.0018 30.5695 94.0418 30.7402 93.1671 31.0815C92.2925 31.4228 91.5351 31.9135 90.8951 32.5535C90.2551 33.1935 89.7538 33.9508 89.3911 34.8255C89.0498 35.7002 88.8791 36.6708 88.8791 37.7375C88.8791 38.8042 89.0498 39.7748 89.3911 40.6495C89.7538 41.5242 90.2551 42.2815 90.8951 42.9215C91.5351 43.5615 92.2925 44.0522 93.1671 44.3935C94.0418 44.7348 95.0018 44.9055 96.0471 44.9055C97.1565 44.9055 98.1805 44.6922 99.1191 44.2655C100.058 43.8175 100.911 43.1455 101.679 42.2495L105.007 45.3215C103.94 46.6228 102.618 47.6148 101.039 48.2975C99.4818 48.9802 97.7218 49.3215 95.7591 49.3215ZM115.754 49.1935C113.919 49.1935 112.287 48.8095 110.858 48.0415C109.45 47.2735 108.33 46.2282 107.498 44.9055C106.687 43.5615 106.282 42.0362 106.282 40.3295C106.282 38.6015 106.687 37.0762 107.498 35.7535C108.33 34.4095 109.45 33.3642 110.858 32.6175C112.287 31.8495 113.919 31.4655 115.754 31.4655C117.567 31.4655 119.189 31.8495 120.618 32.6175C122.047 33.3642 123.167 34.3988 123.978 35.7215C124.789 37.0442 125.194 38.5802 125.194 40.3295C125.194 42.0362 124.789 43.5615 123.978 44.9055C123.167 46.2282 122.047 47.2735 120.618 48.0415C119.189 48.8095 117.567 49.1935 115.754 49.1935ZM115.754 45.0975C116.586 45.0975 117.333 44.9055 117.994 44.5215C118.655 44.1375 119.178 43.5935 119.562 42.8895C119.946 42.1642 120.138 41.3108 120.138 40.3295C120.138 39.3268 119.946 38.4735 119.562 37.7695C119.178 37.0655 118.655 36.5215 117.994 36.1375C117.333 35.7535 116.586 35.5615 115.754 35.5615C114.922 35.5615 114.175 35.7535 113.514 36.1375C112.853 36.5215 112.319 37.0655 111.914 37.7695C111.53 38.4735 111.338 39.3268 111.338 40.3295C111.338 41.3108 111.53 42.1642 111.914 42.8895C112.319 43.5935 112.853 44.1375 113.514 44.5215C114.175 44.9055 114.922 45.0975 115.754 45.0975ZM136.243 49.3215C134.451 49.3215 132.734 49.0868 131.091 48.6175C129.448 48.1268 128.126 47.4975 127.123 46.7295L128.883 42.8255C129.843 43.5082 130.974 44.0735 132.275 44.5215C133.598 44.9482 134.931 45.1615 136.275 45.1615C137.299 45.1615 138.12 45.0655 138.739 44.8735C139.379 44.6602 139.848 44.3722 140.147 44.0095C140.446 43.6468 140.595 43.2308 140.595 42.7615C140.595 42.1642 140.36 41.6948 139.891 41.3535C139.422 40.9908 138.803 40.7028 138.035 40.4895C137.267 40.2548 136.414 40.0415 135.475 39.8495C134.558 39.6362 133.63 39.3802 132.691 39.0815C131.774 38.7828 130.931 38.3988 130.163 37.9295C129.395 37.4602 128.766 36.8415 128.275 36.0735C127.806 35.3055 127.571 34.3242 127.571 33.1295C127.571 31.8495 127.912 30.6868 128.595 29.6415C129.299 28.5748 130.344 27.7322 131.731 27.1135C133.139 26.4735 134.899 26.1535 137.011 26.1535C138.419 26.1535 139.806 26.3242 141.171 26.6655C142.536 26.9855 143.742 27.4762 144.787 28.1375L143.187 32.0735C142.142 31.4762 141.096 31.0388 140.051 30.7615C139.006 30.4628 137.982 30.3135 136.979 30.3135C135.976 30.3135 135.155 30.4308 134.515 30.6655C133.875 30.9002 133.416 31.2095 133.139 31.5935C132.862 31.9562 132.723 32.3828 132.723 32.8735C132.723 33.4495 132.958 33.9188 133.427 34.2815C133.896 34.6228 134.515 34.9002 135.283 35.1135C136.051 35.3268 136.894 35.5402 137.811 35.7535C138.75 35.9668 139.678 36.2122 140.595 36.4895C141.534 36.7668 142.387 37.1402 143.155 37.6095C143.923 38.0788 144.542 38.6975 145.011 39.4655C145.502 40.2335 145.747 41.2042 145.747 42.3775C145.747 43.6362 145.395 44.7882 144.691 45.8335C143.987 46.8788 142.931 47.7215 141.523 48.3615C140.136 49.0015 138.376 49.3215 136.243 49.3215ZM159.113 49.1935C157.662 49.1935 156.393 48.8735 155.305 48.2335C154.217 47.5935 153.364 46.6228 152.745 45.3215C152.148 43.9988 151.849 42.3348 151.849 40.3295C151.849 38.3028 152.137 36.6388 152.713 35.3375C153.289 34.0362 154.121 33.0655 155.209 32.4255C156.297 31.7855 157.598 31.4655 159.113 31.4655C160.734 31.4655 162.185 31.8388 163.465 32.5855C164.766 33.3108 165.79 34.3348 166.537 35.6575C167.305 36.9802 167.689 38.5375 167.689 40.3295C167.689 42.1428 167.305 43.7108 166.537 45.0335C165.79 46.3562 164.766 47.3802 163.465 48.1055C162.185 48.8308 160.734 49.1935 159.113 49.1935ZM148.937 55.1455V31.7215H153.705V35.2415L153.609 40.3615L153.929 45.4495V55.1455H148.937ZM158.249 45.0975C159.081 45.0975 159.817 44.9055 160.457 44.5215C161.118 44.1375 161.641 43.5935 162.025 42.8895C162.43 42.1642 162.633 41.3108 162.633 40.3295C162.633 39.3268 162.43 38.4735 162.025 37.7695C161.641 37.0655 161.118 36.5215 160.457 36.1375C159.817 35.7535 159.081 35.5615 158.249 35.5615C157.417 35.5615 156.67 35.7535 156.009 36.1375C155.348 36.5215 154.825 37.0655 154.441 37.7695C154.057 38.4735 153.865 39.3268 153.865 40.3295C153.865 41.3108 154.057 42.1642 154.441 42.8895C154.825 43.5935 155.348 44.1375 156.009 44.5215C156.67 44.9055 157.417 45.0975 158.249 45.0975ZM171.031 48.9375V25.1935H176.023V48.9375H171.031ZM180.656 48.9375V31.7215H185.648V48.9375H180.656ZM183.152 29.3215C182.235 29.3215 181.488 29.0548 180.912 28.5215C180.336 27.9882 180.048 27.3268 180.048 26.5375C180.048 25.7482 180.336 25.0868 180.912 24.5535C181.488 24.0202 182.235 23.7535 183.152 23.7535C184.069 23.7535 184.816 24.0095 185.392 24.5215C185.968 25.0122 186.256 25.6522 186.256 26.4415C186.256 27.2735 185.968 27.9668 185.392 28.5215C184.837 29.0548 184.091 29.3215 183.152 29.3215ZM197.321 49.1935C195.294 49.1935 193.716 48.6815 192.585 47.6575C191.454 46.6122 190.889 45.0655 190.889 43.0175V27.9135H195.881V42.9535C195.881 43.6788 196.073 44.2442 196.457 44.6495C196.841 45.0335 197.364 45.2255 198.025 45.2255C198.814 45.2255 199.486 45.0122 200.041 44.5855L201.385 48.1055C200.873 48.4682 200.254 48.7455 199.529 48.9375C198.825 49.1082 198.089 49.1935 197.321 49.1935ZM188.233 35.9455V32.1055H200.169V35.9455H188.233ZM203.003 48.9375V45.9295L213.179 33.8975L214.043 35.5615H203.227V31.7215H218.075V34.7295L207.899 46.7615L207.003 45.0975H218.363V48.9375H203.003Z" fill="#11828D"/>
</svg>
