<svg width="86" height="85" viewBox="0 0 86 85" fill="none" xmlns="http://www.w3.org/2000/svg">
<path d="M42.3556 40.4316L37.1018 51.8531H66.1123C68.2444 51.8531 72.5084 52.9496 72.5084 57.3354C72.5084 61.7213 68.2444 62.6655 66.1123 62.5893H32.0763L22.0254 84.9755L30.4773 74.2393H67.2545L72.5084 73.554C83.8385 70.6301 86.2142 61.2188 85.9857 56.8786C84.341 44.0865 74.0312 40.5839 69.0819 40.4316H42.3556Z" fill="#186972"/>
<path d="M32.7604 28.5537H43.725L38.4711 40.4321H32.3035C28.4659 39.7011 27.3542 36.9295 27.2781 35.635C26.9126 30.701 30.7807 28.8583 32.7604 28.5537Z" fill="#186972"/>
<path d="M44.4112 22.3861L53.32 0L46.2387 9.36562L24.9947 10.5078L22.2535 10.9646C14.2585 13.4774 -1.3661 23.2542 0.095846 42.2595C1.5578 61.2649 17.1519 69.062 24.7663 70.5848L29.5633 58.478C23.9287 58.0973 12.6138 54.0922 12.4311 41.1174C12.2483 28.1426 22.8627 23.2237 28.1927 22.3861H44.4112Z" fill="#186972"/>
<path d="M46.8281 27.1833L52.5389 13.4775H80.1789L74.2397 27.1833H46.8281Z" fill="#186972"/>
</svg>
