<svg width="671" height="475" viewBox="0 0 671 475" fill="none" xmlns="http://www.w3.org/2000/svg">
<path fill-rule="evenodd" clip-rule="evenodd" d="M642.699 274.186C630.699 317.114 610.93 359.222 561.207 385.132C513.579 409.951 449.423 414.953 387.692 407.066C330.411 399.749 288.584 370.263 242.342 344.397C177.856 308.327 87.5203 283.944 70.1422 229.443C50.3132 167.256 85.666 101.448 152.205 61.7139C219.388 21.5957 317.683 16.2354 409.924 26.5426C497.433 36.3211 587.358 63.5659 636.483 115.828C681.323 163.533 657.536 221.103 642.699 274.186Z" fill="#186972"/>
<g clip-path="url(#clip0_2708_1841)">
<path d="M640.051 341.733H29.5059V474.087H640.051V341.733Z" fill="#FEBA91"/>
<path d="M394.73 131.186H258.684C257.593 131.189 256.547 131.719 255.774 132.663C255.001 133.606 254.562 134.885 254.555 136.223V238.89C254.558 240.231 254.994 241.516 255.768 242.463C256.542 243.411 257.59 243.945 258.684 243.947H311.834L303.811 281.644H353.903L346.17 243.947H394.73C395.824 243.945 396.872 243.411 397.646 242.463C398.419 241.516 398.856 240.231 398.859 238.89V136.223C398.851 134.885 398.413 133.606 397.64 132.663C396.867 131.719 395.821 131.189 394.73 131.186Z" fill="#FE7624"/>
<path d="M381.882 137.962H266.077C263.527 137.962 261.461 140.495 261.461 143.621V228.425C261.461 231.551 263.527 234.085 266.077 234.085H381.882C384.431 234.085 386.497 231.551 386.497 228.425V143.621C386.497 140.495 384.431 137.962 381.882 137.962Z" fill="white"/>
<path d="M328.174 268.947C331.518 268.947 334.229 265.478 334.229 261.199C334.229 256.919 331.518 253.45 328.174 253.45C324.83 253.45 322.119 256.919 322.119 261.199C322.119 265.478 324.83 268.947 328.174 268.947Z" stroke="#2E186A" stroke-width="3.12732" stroke-linecap="round" stroke-linejoin="round"/>
<path d="M341.555 244.083L348.251 280.581" stroke="#2E186A" stroke-width="3.12732" stroke-linecap="round" stroke-linejoin="round"/>
<path d="M311.965 243.861H345.864" stroke="#2E186A" stroke-width="3.12732" stroke-linecap="round" stroke-linejoin="round"/>
<path d="M387.594 132.761C388.743 132.785 389.837 133.366 390.638 134.376C391.439 135.386 391.882 136.744 391.869 138.153V238.505" stroke="#2E186A" stroke-width="3.12732" stroke-linecap="round" stroke-linejoin="round"/>
<path d="M311.09 158.954H309.793C309.026 158.954 308.404 159.716 308.404 160.657V164.392C308.404 165.332 309.026 166.095 309.793 166.095H311.09C311.857 166.095 312.479 165.332 312.479 164.392V160.657C312.479 159.716 311.857 158.954 311.09 158.954Z" fill="#FEBA91"/>
<path d="M304.935 158.954H280.741C279.689 158.954 278.836 159.999 278.836 161.289V163.759C278.836 165.049 279.689 166.095 280.741 166.095H304.935C305.987 166.095 306.84 165.049 306.84 163.759V161.289C306.84 159.999 305.987 158.954 304.935 158.954Z" fill="#5D21D1"/>
<path d="M307.469 192.119H280.741C279.689 192.119 278.836 193.164 278.836 194.454V196.924C278.836 198.214 279.689 199.26 280.741 199.26H307.469C308.521 199.26 309.374 198.214 309.374 196.924V194.454C309.374 193.164 308.521 192.119 307.469 192.119Z" fill="#5D21D1"/>
<path d="M332.016 181.077H288.462C287.41 181.077 286.557 182.123 286.557 183.413V185.883C286.557 187.173 287.41 188.218 288.462 188.218H332.016C333.068 188.218 333.921 187.173 333.921 185.883V183.413C333.921 182.123 333.068 181.077 332.016 181.077Z" fill="#FEBA91"/>
<path d="M360.246 181.077H338.473C337.421 181.077 336.568 182.123 336.568 183.413V185.883C336.568 187.173 337.421 188.218 338.473 188.218H360.246C361.298 188.218 362.151 187.173 362.151 185.883V183.413C362.151 182.123 361.298 181.077 360.246 181.077Z" fill="#FEBA91"/>
<path d="M369.424 170.037H368.127C367.36 170.037 366.738 170.799 366.738 171.74V175.475C366.738 176.415 367.36 177.178 368.127 177.178H369.424C370.191 177.178 370.813 176.415 370.813 175.475V171.74C370.813 170.799 370.191 170.037 369.424 170.037Z" fill="#5D21D1"/>
<path d="M325.907 170.015H280.741C279.689 170.015 278.836 171.061 278.836 172.351V174.821C278.836 176.111 279.689 177.157 280.741 177.157H325.907C326.959 177.157 327.811 176.111 327.811 174.821V172.351C327.811 171.061 326.959 170.015 325.907 170.015Z" fill="#5D21D1"/>
<path d="M340.371 158.954H316.176C315.124 158.954 314.271 159.999 314.271 161.289V163.759C314.271 165.049 315.124 166.095 316.176 166.095H340.371C341.423 166.095 342.275 165.049 342.275 163.759V161.289C342.275 159.999 341.423 158.954 340.371 158.954Z" fill="#5D21D1"/>
<path d="M362.63 169.995H331.92C330.86 169.995 330.002 171.048 330.002 172.346V174.826C330.002 176.125 330.86 177.177 331.92 177.177H362.63C363.689 177.177 364.548 176.125 364.548 174.826V172.346C364.548 171.048 363.689 169.995 362.63 169.995Z" fill="#FE7624"/>
<path d="M258.401 279.716L264.837 266.53C264.837 266.53 258.699 233.145 254.847 216.557C251.398 201.693 243.35 198.035 237.337 200.15L194.538 209.035C194.223 208.994 193.908 208.963 193.602 208.953C186.108 208.747 173.696 242.025 170.797 261.406C174.695 259.862 183.465 258.247 194.613 260.094C194.941 259.291 196.136 256.847 197.71 253.405C197.895 253.796 198.075 254.177 198.255 254.547C200.899 259.95 208.091 278.281 212.916 280.138L258.43 281.877L257.876 279.716C258.051 279.73 258.226 279.73 258.401 279.716Z" fill="#2E186A"/>
<path d="M213.685 183.317L212.426 184.315C212.426 184.315 204.966 189.29 202.62 180.05C200.845 173.037 206.329 170.83 209.082 170.176" fill="white"/>
<path d="M213.685 183.317L212.426 184.315C212.426 184.315 204.966 189.29 202.62 180.05C200.845 173.037 206.329 170.83 209.082 170.176" stroke="#2E186A" stroke-width="3.12732" stroke-linecap="round" stroke-linejoin="round"/>
<path d="M231.035 195.813L228.178 203.593L232.428 202.45C232.89 203.479 238.399 218.045 225.056 221.785C216.299 224.234 206.174 215.519 201.588 207.58L208.99 205.934L215.028 188.096L231.035 195.813Z" fill="white" stroke="#2E186A" stroke-width="3.12732" stroke-linecap="round" stroke-linejoin="round"/>
<path d="M240.429 165.869C241.444 170.109 244.352 190.231 233.829 195.196C223.305 200.16 213.432 190.169 209.689 177.78C205.946 165.391 208.292 153.275 214.896 149.925C221.501 146.576 233.036 135.195 240.429 165.869Z" fill="white" stroke="#2E186A" stroke-width="3.12732" stroke-linecap="round" stroke-linejoin="round"/>
<path d="M229.659 182.205C231.246 182.561 232.885 182.276 234.329 181.392C234.423 181.335 234.528 181.306 234.633 181.307C234.739 181.309 234.842 181.341 234.936 181.401C235.029 181.462 235.109 181.548 235.17 181.654C235.231 181.76 235.271 181.881 235.285 182.01C235.508 183.599 235.445 186.367 232.608 187.206C229.646 188.081 229.017 184.891 228.891 183.09C228.883 182.966 228.898 182.842 228.934 182.726C228.971 182.611 229.028 182.507 229.102 182.422C229.175 182.337 229.264 182.273 229.36 182.236C229.456 182.198 229.558 182.188 229.659 182.205Z" fill="#2E186A"/>
<path d="M231.483 176.479L234.743 175.435L230.232 160.108" stroke="#2E186A" stroke-width="3.12732" stroke-linecap="round" stroke-linejoin="round"/>
<path d="M220.629 165.036C220.629 165.036 222.261 161.229 224.783 162.634" stroke="#2E186A" stroke-width="3.12732" stroke-linecap="round" stroke-linejoin="round"/>
<path d="M230.707 156.023C230.707 156.023 232.742 152.534 235.083 154.366" stroke="#2E186A" stroke-width="3.12732" stroke-linecap="round" stroke-linejoin="round"/>
<path d="M227.713 171.97C228.317 171.818 228.647 170.742 228.45 169.568C228.253 168.393 227.603 167.564 226.999 167.717C226.396 167.869 226.066 168.945 226.263 170.119C226.46 171.294 227.11 172.122 227.713 171.97Z" fill="#2E186A"/>
<path d="M238.442 169.345C239.046 169.193 239.375 168.117 239.178 166.943C238.981 165.768 238.332 164.94 237.728 165.092C237.124 165.245 236.795 166.32 236.992 167.495C237.189 168.669 237.838 169.498 238.442 169.345Z" fill="#2E186A"/>
<path d="M224.846 181.161C228.705 180.358 231.115 174.52 230.23 168.122C229.344 161.723 225.498 157.187 221.64 157.99C217.781 158.793 215.37 164.63 216.256 171.029C217.141 177.427 220.987 181.963 224.846 181.161Z" stroke="#FE7624" stroke-width="2.34549" stroke-linecap="round" stroke-linejoin="round"/>
<path d="M243.221 176.829C247.08 176.027 249.49 170.189 248.605 163.79C247.719 157.392 243.873 152.856 240.015 153.659C236.156 154.461 233.745 160.299 234.631 166.698C235.516 173.096 239.362 177.632 243.221 176.829Z" stroke="#FE7624" stroke-width="2.34549" stroke-linecap="round" stroke-linejoin="round"/>
<path d="M234.24 163.807L229.889 164.821" stroke="#FE7624" stroke-width="2.34549" stroke-linecap="round" stroke-linejoin="round"/>
<path d="M215.975 166.966L206.127 171.035" stroke="#FE7624" stroke-width="2.34549" stroke-linecap="round" stroke-linejoin="round"/>
<path d="M243.497 142.759C235.466 122.585 221.699 134.064 212.48 145.547C205.309 145.398 196.2 154.294 194.257 161.45C191.92 170.047 192.734 182.406 197.614 190.324C207 202.98 215.023 200.269 220.775 194.182C217.44 192.022 214.536 188.523 212.346 184.366C211.507 184.88 204.822 188.718 202.624 180.049C201.68 176.319 202.787 173.947 204.445 172.45C205.099 172.697 205.964 172.574 207.088 171.936C212.602 168.849 214.612 161.167 215.342 156.331L241.525 147.996C241.96 147.857 242.365 147.602 242.71 147.248C243.056 146.894 243.333 146.451 243.521 145.95C243.71 145.449 243.806 144.903 243.801 144.351C243.797 143.799 243.693 143.255 243.497 142.759Z" fill="#2E186A"/>
<path d="M229.79 266.392C218.607 265.718 192.886 261.329 192.886 261.329L193.306 259.919C183.974 258.577 176.442 259.631 172.246 260.948C170.949 265.455 170.433 269.324 171.147 271.897C172.082 275.298 175.259 278.169 178.154 278.683C202.243 282.969 230.906 279.758 230.906 279.758L239.029 272.123C239.029 272.123 230.289 266.392 229.79 266.392Z" fill="white" stroke="#2E186A" stroke-width="3.12732" stroke-linecap="round" stroke-linejoin="round"/>
<path d="M227.348 266.392C231.121 266.236 234.899 266.496 238.635 267.169C242.101 267.822 247.996 268.918 248.588 269.89C249.981 272.18 244.673 273.327 242.164 271.434" fill="white"/>
<path d="M227.348 266.392C231.121 266.236 234.899 266.496 238.635 267.169C242.101 267.822 247.996 268.918 248.588 269.89C249.981 272.18 244.673 273.327 242.164 271.434" stroke="#2E186A" stroke-width="3.12732" stroke-linecap="round" stroke-linejoin="round"/>
<path d="M240.011 274.197C244.928 275.802 247.496 276.023 246.443 273.682C245.835 272.345 237.632 267.74 236.029 267.226C234.426 266.711 225.656 266.016 225.656 266.016" fill="white"/>
<path d="M240.011 274.197C244.928 275.802 247.496 276.023 246.443 273.682C245.835 272.345 237.632 267.74 236.029 267.226C234.426 266.711 225.656 266.016 225.656 266.016" stroke="#2E186A" stroke-width="3.12732" stroke-linecap="round" stroke-linejoin="round"/>
<path d="M233.884 270.58C235.892 271.334 237.864 272.221 239.792 273.24C242.364 274.66 243.909 276.234 243.728 276.842C243.548 277.449 241.63 278.689 239.952 277.958C237.594 276.363 232.298 274.727 232.298 274.727C232.852 274.573 236.54 276.44 238.563 277.233C240.585 278.025 242.209 280.397 237.304 280.057L229.902 279.769" fill="white"/>
<path d="M233.884 270.58C235.892 271.334 237.864 272.221 239.792 273.24C242.364 274.66 243.909 276.234 243.728 276.842C243.548 277.449 241.63 278.689 239.952 277.958C237.594 276.363 232.298 274.727 232.298 274.727C232.852 274.573 236.54 276.44 238.563 277.233C240.585 278.025 242.209 280.397 237.304 280.057L229.902 279.769" stroke="#2E186A" stroke-width="3.12732" stroke-linecap="round" stroke-linejoin="round"/>
<path d="M296.094 226.878C296.094 226.878 303.932 226.595 309.064 222.916C312.122 220.725 316.088 217.715 316.281 216.418C316.642 213.98 311.804 216.47 311.036 216.789" fill="white"/>
<path d="M296.094 226.878C296.094 226.878 303.932 226.595 309.064 222.916C312.122 220.725 316.088 217.715 316.281 216.418C316.642 213.98 311.804 216.47 311.036 216.789" stroke="#2E186A" stroke-width="3.12732" stroke-linecap="round" stroke-linejoin="round"/>
<path d="M301.644 220.087C301.644 220.087 305.84 217.401 307.695 214.69C309.549 211.979 310.812 209.854 310.468 209.314C310.124 208.773 307.737 208.856 306.47 210.41C304.871 213.208 299.97 216.192 299.97 216.192C300.511 216.095 303.688 213.419 305.244 211.639C306.801 209.859 307.498 206.571 303.226 209.221C303.226 209.221 298.678 212.221 296.991 213.023C296.991 213.023 289.858 214.124 287.541 217.067C285.989 219.053 273.875 234.195 264.791 243.733C259.537 247.901 245.154 278.626 258.824 278.76C261.652 278.889 265.294 276.609 266.742 274.073L293.987 227.475C298.346 226.616 301.455 225.248 303.545 223.874C306.251 222.068 314.496 213.692 314.652 212.591C315.071 209.653 310.989 209.741 307.976 214.428" fill="white"/>
<path d="M301.644 220.087C301.644 220.087 305.84 217.401 307.695 214.69C309.549 211.979 310.812 209.854 310.468 209.314C310.124 208.773 307.737 208.856 306.47 210.41C304.871 213.208 299.97 216.192 299.97 216.192C300.511 216.095 303.688 213.419 305.244 211.639C306.801 209.859 307.498 206.571 303.226 209.221C303.226 209.221 298.678 212.221 296.991 213.023C296.991 213.023 289.858 214.124 287.541 217.067C285.989 219.053 273.875 234.195 264.791 243.733C259.537 247.901 245.154 278.626 258.824 278.76C261.652 278.889 265.294 276.609 266.742 274.073L293.987 227.475C298.346 226.616 301.455 225.248 303.545 223.874C306.251 222.068 314.496 213.692 314.652 212.591C315.071 209.653 310.989 209.741 307.976 214.428" stroke="#2E186A" stroke-width="3.12732" stroke-linecap="round" stroke-linejoin="round"/>
<path d="M209.53 203.961C212.792 196.831 211.333 188.23 206.272 184.749C201.211 181.268 194.465 184.226 191.203 191.356C187.941 198.485 189.4 207.087 194.46 210.568C199.521 214.049 206.268 211.091 209.53 203.961Z" fill="#2E186A"/>
<path d="M220.845 211.297C221.665 205.446 218.963 199.994 214.81 199.12C210.658 198.246 206.627 202.28 205.808 208.131C204.988 213.982 207.69 219.434 211.843 220.309C215.996 221.183 220.026 217.149 220.845 211.297Z" fill="#2E186A"/>
<path d="M226.242 230.109C228.69 225.769 228.177 220.134 225.096 217.522C222.016 214.911 217.535 216.313 215.088 220.653C212.64 224.993 213.153 230.628 216.234 233.24C219.314 235.851 223.795 234.45 226.242 230.109Z" fill="#2E186A"/>
<path d="M230.866 243.255C233.592 240.452 234.188 235.822 232.199 232.913C230.209 230.005 226.387 229.919 223.661 232.722C220.936 235.525 220.34 240.156 222.329 243.064C224.319 245.972 228.141 246.058 230.866 243.255Z" fill="#2E186A"/>
<path d="M228.499 255.34C231.294 257.151 231.747 259.585 231.529 261.514C231.506 261.714 231.533 261.918 231.607 262.098C231.681 262.278 231.798 262.426 231.943 262.523C232.087 262.62 232.252 262.66 232.416 262.639C232.58 262.618 232.734 262.536 232.859 262.404C236.056 258.87 240.953 252.001 236.925 246.486C235.024 243.883 231.6 243.569 229.02 246.049C226.439 248.528 225.982 253.704 228.499 255.34Z" fill="#2E186A"/>
<path d="M205.805 209.849L210.349 201.442" stroke="#FE7624" stroke-width="4.16976" stroke-linecap="round" stroke-linejoin="round"/>
<path d="M214.955 221.543L220.624 216.573" stroke="#FE7624" stroke-width="4.16976" stroke-linecap="round" stroke-linejoin="round"/>
<path d="M223.662 232.642L225.601 231.459" stroke="#FE7624" stroke-width="4.16976" stroke-linecap="round" stroke-linejoin="round"/>
<path d="M229.461 245.401L231.399 244.218" stroke="#FE7624" stroke-width="4.16976" stroke-linecap="round" stroke-linejoin="round"/>
<path d="M219.936 417.293L211.209 452.078C211.209 452.078 226.562 456.708 224.951 472.694L187.141 472.457L197.958 413.079L219.936 417.293Z" fill="#FE7624"/>
<path d="M271.292 415.981L262.27 451.903C262.27 451.903 278.156 456.801 276.486 473.389L237.283 473.142L248.491 411.613L271.292 415.981Z" fill="#FE7624"/>
<path d="M259.312 283.113H232.982L232.017 281.24L221.757 283.113H217.142L217.003 283.983L171.737 292.256C171.41 293.665 160.102 318.016 170.843 335.396C175.14 342.352 190.455 344.142 207.281 343.787L191.601 440.291H231.773L242.972 380.677L236.292 440.641H276.465L279.872 303.07C279.872 303.07 279.872 281.312 259.312 283.113Z" fill="#5D21D1"/>
<path d="M102.425 392.956L94.125 449.345L94.3096 474.282H103.927L104.481 449.628C104.481 449.628 108.379 473.742 121.814 474.838C135.25 475.934 146.86 471.406 146.768 470.763C146.726 470.439 147.187 465.587 147.607 460.885C148.001 456.769 144.804 452.777 141.363 453.018C136.198 453.389 129.422 452.885 125.31 448.686C117.967 441.18 128.52 391.578 128.52 391.578L102.425 392.956Z" fill="#2E186A"/>
<path d="M151.744 395.179L152.315 474.283H161.928L162.498 449.628C162.498 449.628 166.401 473.743 179.836 474.839C193.272 475.934 204.878 471.407 204.79 470.764C204.744 470.44 205.209 465.588 205.629 460.886C206.023 456.77 202.822 452.777 199.381 453.019C194.216 453.389 187.444 452.885 183.332 448.687C175.989 441.18 176.92 386.629 176.92 386.629L151.744 395.179Z" fill="#2E186A"/>
<path d="M142.211 283.224L145.244 282.844C154.056 287.227 164.126 284.253 173.19 277.539C172.044 276.371 169.976 273.31 169.976 271.648C169.976 260.926 171.847 251.213 178.573 238.721L165.117 249.288C165.117 249.288 159.469 238.484 154.362 227.031C153.842 219.262 152.545 212.399 150.003 207.892C142.19 196.517 124.592 197.896 124.592 197.896L95.5052 195.22L95.3206 195.097C89.9204 195.097 82.5648 202.15 81.7592 209.796C80.257 224.022 83.9117 242.95 85.4685 259.357C85.1957 261.044 84.9775 262.382 84.8223 263.267C84.8223 263.267 54.2335 315.432 75.6331 341.691C75.7463 341.897 109.251 341.419 109.251 341.419L95.8241 433.791L179.052 435.659C179.052 435.659 188.127 343.415 186.243 333.187C182.425 312.442 142.211 283.224 142.211 283.224Z" fill="#FE7624"/>
<path d="M115.328 194.761C112.646 195.168 109.961 191.288 109.298 186.015C108.926 183.482 109.179 180.87 110.024 178.514" stroke="#FE7624" stroke-width="3.12732" stroke-linecap="round" stroke-linejoin="round"/>
<path d="M152.382 193.162C149.701 193.568 147.016 189.689 146.353 184.415C145.98 181.882 146.233 179.27 147.079 176.914" stroke="#FE7624" stroke-width="3.12732" stroke-linecap="round" stroke-linejoin="round"/>
<path d="M112.453 140.854C117.606 134.881 118.684 107.443 101.523 91.7199C84.1513 75.8169 73.0613 96.3966 70.6738 101.752C68.2863 107.108 67.4639 120.923 82.1834 131.67C96.9029 142.418 106.579 147.692 112.453 140.854Z" fill="#2E186A"/>
<path d="M121.857 151.53L121.53 151.864C120.566 152.816 119.343 153.282 118.109 153.167C116.875 153.052 115.723 152.366 114.887 151.247L110.041 144.769C109.629 144.24 109.311 143.613 109.105 142.927C108.899 142.241 108.811 141.51 108.845 140.78C108.879 140.05 109.036 139.337 109.304 138.684C109.573 138.031 109.948 137.453 110.406 136.985L110.729 136.651C111.694 135.7 112.918 135.235 114.152 135.349C115.386 135.464 116.539 136.15 117.376 137.268L122.218 143.745C122.63 144.274 122.948 144.901 123.155 145.587C123.361 146.273 123.449 147.004 123.416 147.734C123.382 148.464 123.226 149.177 122.958 149.83C122.69 150.483 122.315 151.062 121.857 151.53Z" fill="#FE7624"/>
<path d="M117.809 175.082C119.001 172.014 117.837 168.281 115.207 166.744C112.578 165.207 109.479 166.448 108.287 169.516C107.094 172.583 108.259 176.316 110.888 177.853C113.517 179.39 116.616 178.149 117.809 175.082Z" fill="white" stroke="#2E186A" stroke-width="3.12732" stroke-linecap="round" stroke-linejoin="round"/>
<path d="M154.025 173.002C155.218 169.935 154.053 166.202 151.424 164.665C148.795 163.128 145.696 164.368 144.503 167.436C143.311 170.504 144.475 174.236 147.105 175.774C149.734 177.311 152.833 176.07 154.025 173.002Z" fill="white" stroke="#2E186A" stroke-width="3.12732" stroke-linecap="round" stroke-linejoin="round"/>
<path d="M134.465 190.579L134.755 199.763L141.049 201.455C141.401 202.705 141.787 224.376 125.637 221.68C115.042 219.91 110.086 208.303 107.25 197.648L116.238 198.42L116.28 172.572L134.465 190.579Z" fill="white" stroke="#2E186A" stroke-width="3.12732" stroke-linecap="round" stroke-linejoin="round"/>
<path d="M135.239 195.758C144.29 193.719 149.894 180.503 147.757 166.238C145.62 151.974 136.55 142.064 127.499 144.103C118.448 146.141 112.844 159.358 114.981 173.622C117.118 187.886 126.188 197.796 135.239 195.758Z" fill="white" stroke="#2E186A" stroke-width="3.12732" stroke-linecap="round" stroke-linejoin="round"/>
<path d="M132.879 176.169L136.051 176.04C136.128 176.037 136.203 176.013 136.271 175.969C136.34 175.926 136.399 175.864 136.445 175.788C136.491 175.712 136.522 175.625 136.537 175.533C136.552 175.44 136.549 175.344 136.529 175.253L134.243 164.644" stroke="#2E186A" stroke-width="3.12732" stroke-linecap="round" stroke-linejoin="round"/>
<path d="M124.068 159.479C124.068 159.479 126.88 156.392 129.225 158.964" stroke="#2E186A" stroke-width="3.12732" stroke-linecap="round" stroke-linejoin="round"/>
<path d="M136.895 158.501C136.895 158.501 140.486 156.85 141.93 160.22" stroke="#2E186A" stroke-width="3.12732" stroke-linecap="round" stroke-linejoin="round"/>
<path d="M130.087 168.203C130.121 166.919 129.58 165.856 128.878 165.828C128.176 165.8 127.58 166.818 127.546 168.102C127.512 169.385 128.053 170.448 128.755 170.476C129.457 170.504 130.053 169.486 130.087 168.203Z" fill="#2E186A"/>
<path d="M140.805 171.044C141.503 170.982 142.007 169.889 141.931 168.602C141.855 167.315 141.228 166.323 140.53 166.385C139.831 166.446 139.327 167.54 139.403 168.826C139.479 170.113 140.107 171.106 140.805 171.044Z" fill="#2E186A"/>
<path d="M125.352 138.01L125.314 138.071C119.893 139.039 113.838 142.09 110.469 146.53C104.498 154.401 107.242 171.313 113.326 172.46C113.829 172.556 114.336 172.618 114.845 172.645C114.791 172.218 114.744 171.791 114.702 171.359C114.561 169.822 114.506 168.275 114.539 166.729C122.83 162.932 122.813 147.692 122.801 146.422C124.559 148.14 126.862 151.083 126.267 154.304L144.607 155.724C146.458 159.649 147.624 164.003 148.031 168.509C148.031 168.571 148.031 168.627 148.031 168.689C149.747 165.679 149.831 160.971 148.392 156.017L154.581 156.495C154.581 156.495 160.288 130.817 125.352 138.01Z" fill="#2E186A"/>
<path d="M150.52 173.325C153.226 172.81 155.496 177.23 156.167 182.56C156.839 187.89 155.185 192.634 152.475 193.148H152.383" stroke="#FE7624" stroke-width="3.12732" stroke-linecap="round" stroke-linejoin="round"/>
<path d="M112.986 175.434C115.697 174.919 118.441 178.824 119.112 184.18C119.784 189.536 118.131 194.254 115.42 194.763H115.328" stroke="#FE7624" stroke-width="3.12732" stroke-linecap="round" stroke-linejoin="round"/>
<path d="M133.492 183.845C133.492 183.845 126.25 189.355 125.881 177.383L133.492 183.845Z" stroke="#2E186A" stroke-width="3.12732" stroke-linecap="round" stroke-linejoin="round"/>
<path d="M111.92 251.779C111.92 251.779 106.222 248.584 103.293 255.169" stroke="#2E186A" stroke-width="3.12732" stroke-linecap="round" stroke-linejoin="round"/>
<path d="M111.428 248.984C111.428 248.984 106.465 241.998 100.443 251.181" stroke="#2E186A" stroke-width="3.12732" stroke-linecap="round" stroke-linejoin="round"/>
<path d="M146.713 240.665L153.305 237.578C153.305 237.578 158.466 230.596 160.744 228.502C163.023 226.408 167.504 226.666 164.487 229.902C161.47 233.138 161.038 235.088 161.038 235.088C161.038 235.088 168.977 232.253 173.341 228.914C177.801 225.503 176.832 231.358 176.832 231.358C176.832 231.358 180.188 231.924 178.9 234.044C178.9 234.044 181.481 235.855 178.9 237.671C178.9 237.671 182.559 238.144 180.465 240.825C178.942 244.642 168.377 251.876 161.894 251.289L158.269 253.244L153.699 256.007" fill="white"/>
<path d="M146.713 240.665L153.305 237.578C153.305 237.578 158.466 230.596 160.744 228.502C163.023 226.408 167.504 226.666 164.487 229.902C161.47 233.138 161.038 235.088 161.038 235.088C161.038 235.088 168.977 232.253 173.341 228.914C177.801 225.503 176.832 231.358 176.832 231.358C176.832 231.358 180.188 231.924 178.9 234.044C178.9 234.044 181.481 235.855 178.9 237.671C178.9 237.671 182.559 238.144 180.465 240.825C178.942 244.642 168.377 251.876 161.894 251.289L158.269 253.244L153.699 256.007" stroke="#2E186A" stroke-width="3.12732" stroke-linecap="round" stroke-linejoin="round"/>
<path d="M166.082 237.063C166.082 237.063 174.134 234.635 176.832 231.404L166.082 237.063Z" fill="white"/>
<path d="M166.082 237.063C166.082 237.063 174.134 234.635 176.832 231.404" stroke="#2E186A" stroke-width="3.12732" stroke-linecap="round" stroke-linejoin="round"/>
<path d="M167.135 240.46C168.008 239.986 174.436 238.536 178.51 233.715L167.135 240.46Z" fill="white"/>
<path d="M167.135 240.46C168.008 239.986 174.436 238.536 178.51 233.715" stroke="#2E186A" stroke-width="3.12732" stroke-linecap="round" stroke-linejoin="round"/>
<path d="M168.172 243.974C169.997 243.022 174.004 243.3 178.93 237.959L168.172 243.974Z" fill="white"/>
<path d="M168.172 243.974C169.997 243.022 174.004 243.3 178.93 237.959" stroke="#2E186A" stroke-width="3.12732" stroke-linecap="round" stroke-linejoin="round"/>
<path d="M108.467 222.143C111.492 236.58 112.163 252.18 112.163 252.18L146.378 240.742L153.574 255.992C153.574 255.992 145.312 260.88 128.062 271.602C112.789 281.094 93.5123 289.023 86.291 264.255" stroke="#2E186A" stroke-width="3.12732" stroke-linecap="round" stroke-linejoin="round"/>
<path d="M425.321 424.598V473.29H373.971C373.971 473.29 373.811 455.427 397.468 452.134V426.09L425.321 424.598Z" fill="#2E186A"/>
<path d="M382.88 424.598V473.29H331.533C331.533 473.29 331.37 455.426 355.031 452.134V426.09L382.88 424.598Z" fill="#2E186A"/>
<path d="M398.309 298.423L359.152 329.864C354.475 336.359 351.802 344.659 351.599 353.32L349.061 440.161H381.37C381.37 440.161 426.044 441.159 426.044 437.167C426.044 433.967 428.688 375.942 429.737 352.985C429.853 350.456 430.728 348.069 432.195 346.284C433.662 344.5 435.616 343.445 437.68 343.323C445.3 342.865 456.654 342.212 461.639 342.021C500.758 340.349 490.297 320.557 485.673 306.47C483.886 301.032 482.157 295.851 480.793 291.93" fill="white"/>
<path d="M398.309 298.423L359.152 329.864C354.475 336.359 351.802 344.659 351.599 353.32L349.061 440.161H381.37C381.37 440.161 426.044 441.159 426.044 437.167C426.044 433.967 428.688 375.942 429.737 352.985C429.853 350.456 430.728 348.069 432.195 346.284C433.662 344.5 435.616 343.445 437.68 343.323C445.3 342.865 456.654 342.212 461.639 342.021C500.758 340.349 490.297 320.557 485.673 306.47C483.886 301.032 482.157 295.851 480.793 291.93" stroke="#2E186A" stroke-width="3.12732" stroke-linecap="round" stroke-linejoin="round"/>
<path d="M438.423 294.884L393.496 317.686C387.87 321.89 387.811 334.366 387.551 343.195L385.033 440.161" stroke="#2E186A" stroke-width="3.12732" stroke-linecap="round" stroke-linejoin="round"/>
<path d="M491.85 259.064C480.215 174.049 461.282 186.057 451.623 186.459L429.624 187.539C429.625 187.182 429.593 186.827 429.527 186.479C429.347 185.497 428.491 184.704 427.387 184.077V184.035C430.19 183.176 435.578 181.262 435.515 179.77C435.423 177.666 424.681 178.674 421.383 178.927C419.704 179.05 416.444 180.274 413.679 181.432C411.895 182.182 410.256 183.373 408.863 184.931C407.47 186.49 406.353 188.383 405.581 190.492C404.981 192.128 403.185 197.767 402.644 199.367L395.682 195.509C395.682 195.509 382.402 232.743 379.318 242.43C378.976 243.638 378.687 244.868 378.454 246.114C371.942 269.992 385.654 282.381 385.654 282.381L452.505 283.214L444.75 291.292C443.613 292.887 481.209 289.296 482.514 289.496C483.181 289.594 479.799 283.276 476.342 277.076C484.428 272.997 492.366 266.946 491.85 259.064Z" fill="#5D21D1"/>
<path d="M476.243 242.94C476.243 242.94 470.071 239.416 461.624 246.511C461.624 246.511 452.091 226.621 453.098 216.089" stroke="#2E186A" stroke-width="3.12732" stroke-linecap="round" stroke-linejoin="round"/>
<path d="M428.51 265.413C429.424 264.796 461.864 246.644 461.864 246.644" stroke="#2E186A" stroke-width="3.12732" stroke-linecap="round" stroke-linejoin="round"/>
<path d="M402.453 250.802L415.31 206.005L411.34 203.839" stroke="#2E186A" stroke-width="3.12732" stroke-linecap="round" stroke-linejoin="round"/>
<path d="M450.497 190.462L442.831 166.456L426.014 179.596L428.066 191.208L427.533 215.888L450.497 190.462Z" fill="white" stroke="#2E186A" stroke-width="3.12732" stroke-linecap="round" stroke-linejoin="round"/>
<path d="M419.33 140.129C419.33 140.129 433.576 151.253 426.598 161.578C426.598 161.578 423.488 165.89 420.937 165.02C420.937 165.02 422.826 161.357 420.669 159.438C420.669 159.438 419.96 170.464 412.596 168.185C412.596 168.185 415.323 163.317 414.627 157.457C413.171 145.218 415.504 137.901 419.33 140.129Z" fill="#2E186A"/>
<path d="M448.874 157.776C448.874 157.776 451.744 136.265 433.995 132.396C432.342 132.036 420.987 129.824 418.864 141.379C417.433 149.097 417.123 157.452 417.257 163.95C417.257 163.991 417.353 176.236 421.26 183.074C425.166 189.912 433.915 189.356 438.56 186.043C443.205 182.729 444.061 180.995 445.378 177.034C446.696 173.072 448.865 157.823 448.865 157.823L448.874 157.776Z" fill="white" stroke="#2E186A" stroke-width="3.12732" stroke-linecap="round" stroke-linejoin="round"/>
<path d="M424.588 159.242L422.775 169.794L425.914 169.187" stroke="#2E186A" stroke-width="3.12732" stroke-linecap="round" stroke-linejoin="round"/>
<path d="M421.508 158.513C421.579 157.579 421.239 156.777 420.747 156.72C420.256 156.664 419.8 157.375 419.728 158.309C419.657 159.242 419.998 160.045 420.489 160.101C420.981 160.158 421.437 159.446 421.508 158.513Z" fill="#2E186A"/>
<path d="M429.219 161.257C429.71 161.2 430.05 160.397 429.977 159.463C429.905 158.53 429.448 157.82 428.956 157.877C428.465 157.934 428.125 158.737 428.198 159.671C428.27 160.604 428.727 161.315 429.219 161.257Z" fill="#2E186A"/>
<path d="M434.155 152.004C433.726 151.273 433.145 150.696 432.473 150.334C431.8 149.972 431.061 149.838 430.332 149.946" stroke="#2E186A" stroke-width="3.12732" stroke-linecap="round" stroke-linejoin="round"/>
<path d="M422.537 149.086C422.537 149.086 419.469 147.357 418.102 149.6" stroke="#2E186A" stroke-width="3.12732" stroke-linecap="round" stroke-linejoin="round"/>
<path d="M435.031 141.6C435.031 141.6 428.146 170.412 443.784 173.499C443.784 173.499 452.894 175.557 454.996 171.621C454.996 171.621 448.416 167.263 449.277 162.648C449.277 162.648 456.645 172.696 463.153 165.586C463.153 165.586 452.373 163.286 453.401 151.386C454.14 142.86 437.478 134.68 435.031 141.6Z" fill="#2E186A"/>
<path d="M463.619 145.916L454.098 144.064C453.158 136.182 449.483 124.879 436.337 122.888C415.776 119.801 415.029 144.311 415.029 144.311L462.645 153.444C463.447 153.568 464.256 153.305 464.902 152.711C465.549 152.116 465.981 151.237 466.107 150.259C466.234 149.28 466.045 148.28 465.58 147.469C465.116 146.659 464.412 146.102 463.619 145.916Z" fill="#FE7624"/>
<path d="M432.215 171.775C432.215 171.775 430.894 175.495 426.605 174.631" stroke="#2E186A" stroke-width="3.12732" stroke-linecap="round" stroke-linejoin="round"/>
<path d="M400.158 198.344C400.376 197.69 400.578 197.063 400.733 196.466C401.618 193.631 402.382 191.377 403.041 189.587C403.812 187.477 404.929 185.585 406.322 184.027C407.715 182.469 409.355 181.28 411.139 180.532C413.904 179.369 417.152 178.15 418.843 178.021C422.141 177.774 432.883 176.766 432.975 178.865C433.038 180.362 427.65 182.271 424.843 183.135L422.603 193.652C422.603 193.652 419.98 194.037 418.688 194.902C416.044 196.672 413.434 199.599 411.529 199.342C411.529 199.342 411.395 201.014 410.984 203.911" fill="white"/>
<path d="M400.158 198.344C400.376 197.69 400.578 197.063 400.733 196.466C401.618 193.631 402.382 191.377 403.041 189.587C403.812 187.477 404.929 185.585 406.322 184.027C407.715 182.469 409.355 181.28 411.139 180.532C413.904 179.369 417.152 178.15 418.843 178.021C422.141 177.774 432.883 176.766 432.975 178.865C433.038 180.362 427.65 182.271 424.843 183.135L422.603 193.652C422.603 193.652 419.98 194.037 418.688 194.902C416.044 196.672 413.434 199.599 411.529 199.342C411.529 199.342 411.395 201.014 410.984 203.911" stroke="#2E186A" stroke-width="3.12732" stroke-linecap="round" stroke-linejoin="round"/>
<path d="M418.611 181.171C418.611 181.171 426.391 182.38 426.974 185.575C427.557 188.77 425.354 188.95 425.354 188.95" fill="white"/>
<path d="M418.611 181.171C418.611 181.171 426.391 182.38 426.974 185.575C427.557 188.77 425.354 188.95 425.354 188.95" stroke="#2E186A" stroke-width="3.12732" stroke-linecap="round" stroke-linejoin="round"/>
<path d="M418.34 184.998C418.34 184.998 425.192 186.794 425.578 190.035C425.964 193.276 423.757 193.256 423.757 193.256" fill="white"/>
<path d="M418.34 184.998C418.34 184.998 425.192 186.794 425.578 190.035C425.964 193.276 423.757 193.256 423.757 193.256" stroke="#2E186A" stroke-width="3.12732" stroke-linecap="round" stroke-linejoin="round"/>
<path d="M417.861 189.731C417.861 189.731 426.073 192.057 422.926 195.612C419.779 199.167 418.197 198.776 418.197 198.776C418.197 198.776 415.948 197.022 419.577 194.295" fill="white"/>
<path d="M417.861 189.731C417.861 189.731 426.073 192.057 422.926 195.612C419.779 199.167 418.197 198.776 418.197 198.776C418.197 198.776 415.948 197.022 419.577 194.295" stroke="#2E186A" stroke-width="3.12732" stroke-linecap="round" stroke-linejoin="round"/>
<path d="M429.032 265.552L424.798 266.54C424.287 266.658 415.668 273.378 415.668 273.378L424.563 280.421C424.563 280.421 425.214 281.213 438.679 280.154C437.718 276.017 432.704 269.73 429.032 265.552Z" fill="white" stroke="#2E186A" stroke-width="3.12732" stroke-linecap="round" stroke-linejoin="round"/>
<path d="M427.32 266.324C423.417 266.549 419.538 267.203 415.731 268.279C412.198 269.308 406.193 271.047 405.66 272.112C404.402 274.612 409.932 275.255 412.374 273.053" fill="white"/>
<path d="M427.32 266.324C423.417 266.549 419.538 267.203 415.731 268.279C412.198 269.308 406.193 271.047 405.66 272.112C404.402 274.612 409.932 275.255 412.374 273.053" stroke="#2E186A" stroke-width="3.12732" stroke-linecap="round" stroke-linejoin="round"/>
<path d="M414.809 275.651C409.845 277.812 407.214 278.306 408.141 275.795C408.674 274.35 416.818 268.762 418.442 268.078C420.066 267.394 429.054 265.768 429.054 265.768" fill="white"/>
<path d="M414.809 275.651C409.845 277.812 407.214 278.306 408.141 275.795C408.674 274.35 416.818 268.762 418.442 268.078C420.066 267.394 429.054 265.768 429.054 265.768" stroke="#2E186A" stroke-width="3.12732" stroke-linecap="round" stroke-linejoin="round"/>
<path d="M420.858 271.309C418.841 272.292 416.869 273.408 414.95 274.653C412.395 276.382 410.909 278.167 411.136 278.769C411.363 279.371 413.41 280.462 415.089 279.536C417.413 277.647 422.759 275.42 422.759 275.42C422.18 275.322 418.504 277.627 416.465 278.646C414.426 279.664 412.919 282.283 417.963 281.429L425.591 280.369" fill="white"/>
<path d="M420.858 271.309C418.841 272.292 416.869 273.408 414.95 274.653C412.395 276.382 410.909 278.167 411.136 278.769C411.363 279.371 413.41 280.462 415.089 279.536C417.413 277.647 422.759 275.42 422.759 275.42C422.18 275.322 418.504 277.627 416.465 278.646C414.426 279.664 412.919 282.283 417.963 281.429L425.591 280.369" stroke="#2E186A" stroke-width="3.12732" stroke-linecap="round" stroke-linejoin="round"/>
<path d="M514.765 405.762L515.327 447.75C515.327 447.75 495.606 453.409 490.398 473.531L534.037 473.49L540.985 395.57L514.765 405.762Z" fill="#FE7624"/>
<path d="M468.478 407.877L463.48 448.82C463.48 448.82 444.943 454.294 440.033 473.181L481.032 473.145L494.019 403.045L468.478 407.877Z" fill="#FE7624"/>
<path d="M609.21 320.217L607.112 287.464L525.874 287.299L524.326 298.505L511.767 298.093C479.957 296.324 474.876 325.742 474.876 325.742L448.756 450.96L487.632 451.191L507.416 362.77L498.42 450.363L537.958 451.083L545.687 360.99C555.007 358.387 585.272 349.671 593.018 344.563C600.865 340.992 609.58 328.819 609.21 320.217Z" fill="#2E186A"/>
<path d="M608.023 235.037C600.73 221.264 591.103 209.578 579.796 200.777C584.701 190.965 583.833 180.995 563.201 178.988C529.805 177.553 526.398 188.532 526.344 197.088C515.333 207.825 508.624 219.288 504.646 230.129C499.854 224.701 490.997 214.756 488.735 212.909C485.588 210.336 483.591 214.869 481.052 213.284C478.513 211.7 477.645 211.226 477.645 211.226C477.645 211.226 475.438 220.801 469.182 223.404C469.182 223.404 469.308 224.835 470.709 227.839C472.11 230.844 469.085 232.984 471.326 236.683C473.566 240.383 493.027 270.877 493.027 270.877C495.373 273.722 500.819 283.739 506.752 280.693V280.04L506.992 280.415L548.993 280.662L547.869 289.193C601.087 295.449 597.331 325.135 612.068 313.441L610.515 273.948C615.55 266.519 617.648 253.307 608.023 235.037Z" fill="#FE7624"/>
<path d="M567.068 189.983L572.384 194.371C572.384 194.371 552.52 209.245 549.927 247.519C548.202 272.945 547.829 302.467 547.829 302.467L538.598 304.061C538.598 304.061 541.661 234.605 538.04 221.691C534.419 208.777 537.729 194.243 540.18 191.892C542.63 189.54 567.068 189.983 567.068 189.983Z" fill="white"/>
<path d="M469.61 202.521C469.291 202.259 459.728 194.804 457.244 194.017C454.76 193.23 454.429 196.872 462.103 202.094C460.946 203.571 460.183 205.446 459.916 207.468C459.649 209.49 459.891 211.564 460.609 213.413C461.323 215.404 467.831 223.327 470.067 223.646C472.304 223.965 480.662 221.28 478.904 214.9C477.146 208.52 474.146 206.241 469.61 202.521Z" fill="white" stroke="#2E186A" stroke-width="3.12732" stroke-linecap="round" stroke-linejoin="round"/>
<path d="M474.355 206.801C474.355 206.801 466.093 202.799 465.254 203.38C464.088 204.198 465.38 208.324 469.031 210.321C469.031 210.321 466.488 214.37 467.889 217.524" fill="white"/>
<path d="M474.355 206.801C474.355 206.801 466.093 202.799 465.254 203.38C464.088 204.198 465.38 208.324 469.031 210.321C469.031 210.321 466.488 214.37 467.889 217.524" stroke="#2E186A" stroke-width="3.12732" stroke-linecap="round" stroke-linejoin="round"/>
<path d="M470.042 227.803C468.388 224.762 468.137 223.383 468.137 223.383C474.124 221.732 477.108 210.861 477.108 210.861C477.108 210.861 478.278 211.216 480.943 213.058C482.017 213.798 482.999 213.207 483.767 213.058C484.837 223.224 474.183 231.194 470.524 233.385C470.079 231.291 471.3 230.113 470.042 227.803Z" fill="#2E186A"/>
<path d="M540.489 254.429C536.656 253.498 532.764 252.991 528.857 252.911C525.224 252.87 519.055 252.783 518.321 253.652C516.588 255.71 521.85 257.969 524.67 256.554" fill="white"/>
<path d="M540.489 254.429C536.656 253.498 532.764 252.991 528.857 252.911C525.224 252.87 519.055 252.783 518.321 253.652C516.588 255.71 521.85 257.969 524.67 256.554" stroke="#2E186A" stroke-width="3.12732" stroke-linecap="round" stroke-linejoin="round"/>
<path d="M548.389 254.624C545.871 254.434 542.38 254.181 538 253.893C537.479 253.857 527.795 257.839 527.795 257.839L535.05 267.301C535.05 267.301 535.469 268.17 546.929 270.779" fill="white"/>
<path d="M548.389 254.624C545.871 254.434 542.38 254.181 538 253.893C537.479 253.857 527.795 257.839 527.795 257.839L535.05 267.301C535.05 267.301 535.469 268.17 546.929 270.779" stroke="#2E186A" stroke-width="3.12732" stroke-linecap="round" stroke-linejoin="round"/>
<path d="M526.512 259.804C521.271 260.437 518.619 260.139 520.012 257.973C520.814 256.727 529.814 253.707 531.526 253.507C533.238 253.306 542.28 254.397 542.28 254.397" fill="white"/>
<path d="M526.512 259.804C521.271 260.437 518.619 260.139 520.012 257.973C520.814 256.727 529.814 253.707 531.526 253.507C533.238 253.306 542.28 254.397 542.28 254.397" stroke="#2E186A" stroke-width="3.12732" stroke-linecap="round" stroke-linejoin="round"/>
<path d="M533.238 257.362C531.087 257.722 528.954 258.223 526.847 258.864C524.027 259.79 522.232 261.087 522.341 261.719C522.45 262.352 524.216 264.03 526.029 263.628C528.656 262.481 534.282 261.894 534.282 261.894C533.737 261.627 529.717 262.779 527.544 263.17C525.37 263.561 523.39 265.655 528.45 266.314L536.062 267.533" fill="white"/>
<path d="M533.238 257.362C531.087 257.722 528.954 258.223 526.847 258.864C524.027 259.79 522.232 261.087 522.341 261.719C522.45 262.352 524.216 264.03 526.029 263.628C528.656 262.481 534.282 261.894 534.282 261.894C533.737 261.627 529.717 262.779 527.544 263.17C525.37 263.561 523.39 265.655 528.45 266.314L536.062 267.533" stroke="#2E186A" stroke-width="3.12732" stroke-linecap="round" stroke-linejoin="round"/>
<path d="M547.639 272.925C545.151 271.772 544.354 270.867 544.354 270.867C547.58 264.693 544.354 254.454 544.354 254.454C544.354 254.454 545.193 254.182 547.811 253.533C548.219 253.438 548.606 253.24 548.947 252.951C549.289 252.662 549.578 252.289 549.796 251.856C555.15 259.296 551.936 272.369 550.509 277.107C549.254 275.739 549.527 273.794 547.639 272.925Z" fill="#2E186A"/>
<path d="M582.488 243.395C582.488 243.395 577.168 244.033 575.816 252.6" stroke="#2E186A" stroke-width="3.12732" stroke-linecap="round" stroke-linejoin="round"/>
<path d="M559.909 218.756C559.909 218.756 554.454 232.616 553.729 242.037" stroke="#2E186A" stroke-width="3.12732" stroke-linecap="round" stroke-linejoin="round"/>
<path d="M534.725 219.363C534.725 219.363 537.242 232.626 536.403 242.037" stroke="#2E186A" stroke-width="3.12732" stroke-linecap="round" stroke-linejoin="round"/>
<path d="M583.839 280.798C583.839 280.798 555.507 278.436 552.331 277.438C549.155 276.44 550.329 273.59 548.03 272.504C545.731 271.419 544.992 270.549 544.992 270.549C547.976 264.715 544.992 255.047 544.992 255.047C544.992 255.047 545.777 254.785 548.19 254.178C550.602 253.571 549.822 250.52 553.09 250.17C556.359 249.82 584.405 253.741 584.405 253.741" stroke="#2E186A" stroke-width="3.12732" stroke-linecap="round" stroke-linejoin="round"/>
<path d="M505.865 229.931C505.865 229.931 512.944 234.319 517.094 241.805" stroke="#2E186A" stroke-width="3.12732" stroke-linecap="round" stroke-linejoin="round"/>
<path d="M579.94 200.489C575.123 210.362 564.318 220.153 561.788 221.583C561.787 221.597 561.787 221.611 561.788 221.625C569.009 222.057 585.873 210.63 588.722 208.623C585.222 205.413 582.319 202.418 579.94 200.489Z" fill="#2E186A"/>
<path d="M526.496 201.677C526.446 200.227 526.32 198.554 526.345 196.785H526.324C524.26 198.781 522.317 200.803 520.496 202.85C522.678 208.037 527.101 215.898 531.926 219.551C530.483 215.857 526.824 210.943 526.496 201.677Z" fill="#2E186A"/>
<path d="M565.619 162.634C565.619 162.634 571.913 162.783 570.788 169.693C569.664 176.602 562.707 172.605 562.707 172.605L563.639 162.783L565.619 162.634Z" fill="white" stroke="#2E186A" stroke-width="3.12732" stroke-linecap="round" stroke-linejoin="round"/>
<path d="M547.685 140.855C546.007 140.685 534.678 139.826 533.419 151.433C532.16 163.04 533.515 175.892 534.569 181.752C535.622 187.612 557.374 184.9 558.603 184.376C559.833 183.851 561.301 182.086 561.301 182.086L564.285 164.233C564.285 164.233 565.501 142.681 547.685 140.855Z" fill="white" stroke="#2E186A" stroke-width="3.12732" stroke-linecap="round" stroke-linejoin="round"/>
<path d="M563.277 172.054L563.672 186.537L567.028 191.24C559.873 197.044 553.382 203.995 547.727 211.907C547.727 211.907 539.998 201.9 538.643 186.224L556.752 188.976L558.171 180.302L563.277 172.054Z" fill="white" stroke="#2E186A" stroke-width="3.12732" stroke-linecap="round" stroke-linejoin="round"/>
<path d="M562.124 164.095C561.046 165.376 558.155 172.759 557.45 176.201C557.45 176.201 550.317 173.309 540.053 173.114C540.053 173.114 534.468 173.247 532.24 174.04C532.24 174.04 532.723 186.233 537.25 192.561C541.778 198.89 551.357 197.11 555.847 193.313C560.337 189.516 561.083 187.705 562.141 183.645C563.198 179.586 565.917 164.444 565.917 164.444L562.124 164.095Z" fill="#968BB4"/>
<path d="M565.061 166.703C565.061 166.703 567.998 161.09 569.16 155.255C569.702 152.597 569.487 149.791 568.551 147.303C567.616 144.814 566.016 142.792 564.016 141.57C560.55 139.512 557.982 141.127 557.982 141.127C557.982 141.127 561.658 133.456 556.14 126.675C555.175 125.489 554.023 124.558 552.753 123.939C551.484 123.319 550.125 123.025 548.759 123.074C546.879 123.094 545.044 123.787 543.479 125.066C541.914 126.345 540.687 128.156 539.948 130.277C539.948 130.277 532.735 114.034 517.952 123.645C516.463 124.617 514.78 127.318 513.979 129.14C509.095 140.17 525.186 153.238 533.566 154.273C542.763 155.41 548.147 153.542 551.109 150.779C548.902 152.42 551.382 169.296 565.061 166.703Z" fill="#2E186A"/>
<path d="M540.412 168.436L539.418 179.061L542.473 178.104" stroke="#2E186A" stroke-width="3.12732" stroke-linecap="round" stroke-linejoin="round"/>
<path d="M536.788 169.382C537.279 169.382 537.678 168.629 537.678 167.7C537.678 166.771 537.279 166.018 536.788 166.018C536.297 166.018 535.898 166.771 535.898 167.7C535.898 168.629 536.297 169.382 536.788 169.382Z" fill="#2E186A"/>
<path d="M544.958 169.106C545.449 169.106 545.847 168.353 545.847 167.423C545.847 166.494 545.449 165.741 544.958 165.741C544.467 165.741 544.068 166.494 544.068 167.423C544.068 168.353 544.467 169.106 544.958 169.106Z" fill="#2E186A"/>
<path d="M549.612 160.647C549.163 159.944 548.57 159.401 547.892 159.074C547.215 158.748 546.479 158.649 545.76 158.79" stroke="#2E186A" stroke-width="3.12732" stroke-linecap="round" stroke-linejoin="round"/>
<path d="M537.607 158.615C537.607 158.615 535.148 157.833 534.531 160.297" stroke="#2E186A" stroke-width="3.12732" stroke-linecap="round" stroke-linejoin="round"/>
<path d="M547.157 181.571C547.157 181.571 546.737 184.792 544.324 184.272" stroke="#2E186A" stroke-width="3.12732" stroke-linecap="round" stroke-linejoin="round"/>
<path d="M616.42 281.712H50.7129V473.983H616.42V281.712Z" stroke="#2E186A" stroke-width="3.12732" stroke-linecap="round" stroke-linejoin="round"/>
<path d="M617.1 281.312H49.6387V306.059H617.1V281.312Z" fill="#2E186A"/>
<path d="M0 474.252H668.043" stroke="#2E186A" stroke-width="3.12732" stroke-linecap="round" stroke-linejoin="round"/>
</g>
<defs>
<clipPath id="clip0_2708_1841">
<rect width="670.56" height="389.991" fill="white" transform="translate(0 85.0087)"/>
</clipPath>
</defs>
</svg>
