<svg width="347" height="86" viewBox="0 0 347 86" fill="none" xmlns="http://www.w3.org/2000/svg">
<g clip-path="url(#clip0_2708_2130)">
<path d="M12.7643 24.4877L24.5078 27.878L37.4154 18.5037L18.8914 19.0347C18.7096 19.0427 18.5334 19.0991 18.3808 19.1981L12.5192 22.5679C12.3369 22.669 12.1891 22.8224 12.0949 23.0083C12.0007 23.1942 11.9644 23.4042 11.9908 23.6109C12.0172 23.8177 12.105 24.0118 12.2429 24.1681C12.3808 24.3244 12.5625 24.4358 12.7643 24.4877Z" fill="#11828D"/>
<path d="M70.5012 13.9896L57.6344 11.2121C56.5523 10.9771 55.4324 10.9777 54.3505 11.2138C53.2687 11.45 52.2503 11.916 51.3644 12.5804L12.4986 40.8261L3.16507 40.4176C2.63045 40.3994 2.10364 40.5496 1.659 40.847C1.21437 41.1444 0.874383 41.574 0.687054 42.075C0.499725 42.5761 0.474516 43.1233 0.614987 43.6395C0.755458 44.1556 1.05451 44.6146 1.46992 44.9516L10.5584 52.1611C10.708 52.2818 10.8861 52.3621 11.0756 52.3943C11.2651 52.4264 11.4597 52.4094 11.6408 52.3449C14.2346 51.3442 23.8949 46.2179 35.3116 39.9479L37.599 63.4553C37.6184 63.6589 37.6931 63.8533 37.8148 64.0176C37.9366 64.1819 38.101 64.3098 38.2901 64.3876C38.4793 64.4653 38.6861 64.49 38.8882 64.4588C39.0903 64.4277 39.2801 64.342 39.4371 64.2109L44.543 59.9629C44.8225 59.7284 45.0105 59.403 45.074 59.0438L49.9144 31.901C58.0838 27.367 65.8855 22.976 71.3794 19.8716C71.9496 19.5614 72.4106 19.0834 72.7 18.5024C72.9893 17.9214 73.0931 17.2655 72.9973 16.6235C72.9015 15.9815 72.6106 15.3846 72.1641 14.9134C71.7176 14.4423 71.1371 14.1198 70.5012 13.9896Z" fill="#11828D"/>
</g>
<mask id="mask0_2708_2130" style="mask-type:luminance" maskUnits="userSpaceOnUse" x="88" y="8" width="66" height="58">
<path d="M107.544 11.351C98.5592 11.351 91.2754 18.6348 91.2754 27.6194C91.2754 43.8877 110.502 58.6771 120.854 62.1171C131.207 58.6771 150.433 43.8877 150.433 27.6194C150.433 18.6348 143.149 11.351 134.165 11.351C128.663 11.351 123.797 14.0826 120.854 18.2636C119.354 16.1271 117.361 14.3834 115.044 13.1802C112.727 11.977 110.154 11.3495 107.544 11.351Z" stroke="white" stroke-width="6.12704" stroke-linecap="round" stroke-linejoin="round"/>
</mask>
<g mask="url(#mask0_2708_2130)">
<path d="M85.3594 0.999207H156.349V71.9883H85.3594V0.999207Z" fill="#FFA2CB"/>
</g>
<path d="M235.002 33.3349V14.6721H224.439V23.8274L210.353 11.1508L175.141 42.8424H185.704V71.0127H206.832V49.885H213.875V71.0127H235.002V42.8424H245.566L235.002 33.3349ZM227.96 63.9701H220.917V42.8424H199.79V63.9701H192.747V36.4689L210.353 20.6231L227.96 36.4689V63.9701Z" fill="#FFC272"/>
<path d="M203.311 35.7995H217.396C217.396 31.9261 214.227 28.757 210.353 28.757C206.48 28.757 203.311 31.9261 203.311 35.7995Z" fill="#FFC272"/>
<g clip-path="url(#clip1_2708_2130)">
<path d="M283.331 20.8684C283.331 24.223 280.6 26.9531 277.246 26.9531C273.891 26.9531 271.161 24.223 271.161 20.8684C271.161 17.5137 273.891 14.7836 277.246 14.7836C280.6 14.7836 283.331 17.5137 283.331 20.8684ZM340.122 20.8684C340.122 24.223 337.392 26.9531 334.037 26.9531C330.682 26.9531 327.952 24.223 327.952 20.8684C327.952 17.5137 330.682 14.7836 334.037 14.7836C337.392 14.7836 340.122 17.5137 340.122 20.8684ZM335.486 47.2357C334.43 42.4425 331.718 38.3035 327.97 35.4061C328.599 35.1856 329.275 35.0662 329.981 35.0662H338.094C341.448 35.0662 344.178 37.7963 344.178 41.151V45.2075C344.178 46.3311 343.274 47.2357 342.15 47.2357H335.486ZM317.811 18.8401C317.811 25.5668 312.368 31.0097 305.641 31.0097C298.915 31.0097 293.472 25.5668 293.472 18.8401C293.472 12.1134 298.915 6.67053 305.641 6.67053C312.368 6.67053 317.811 12.1134 317.811 18.8401ZM305.641 41.151C308.926 41.151 312.005 40.3884 314.776 39.1227H315.377C322.319 39.1227 327.952 44.7558 327.952 51.6979V55.3488C327.952 57.5879 326.135 59.4053 323.896 59.4053H287.387C285.148 59.4053 283.331 57.5879 283.331 55.3488V51.6979C283.331 44.7558 288.964 39.1227 295.906 39.1227H296.508C299.287 40.3871 302.354 41.151 305.641 41.151ZM281.302 35.0662C282.007 35.0662 282.684 35.1856 283.313 35.4061C279.564 38.3039 276.851 42.4433 275.788 47.2357H269.133C268.009 47.2357 267.104 46.3311 267.104 45.2075V41.151C267.104 37.7963 269.835 35.0662 273.189 35.0662H281.302Z" stroke="#DAD1FF" stroke-width="4.05652"/>
</g>
<defs>
<clipPath id="clip0_2708_2130">
<rect width="73.5245" height="73.5245" fill="white" transform="translate(0 1)"/>
</clipPath>
<clipPath id="clip1_2708_2130">
<rect width="81.1304" height="64.9044" fill="white" transform="translate(265.076 0.58551)"/>
</clipPath>
</defs>
</svg>
